<?xml version="1.0" encoding="UTF-8" standalone="no"?>
<!-- Created with Inkscape (http://www.inkscape.org/) -->

<svg
   width="600"
   height="600"
   viewBox="0 0 158.75 158.75"
   version="1.1"
   id="svg1"
   xml:space="preserve"
   inkscape:version="1.4 (86a8ad7, 2024-10-11)"
   sodipodi:docname="잉쿠.svg"
   xmlns:inkscape="http://www.inkscape.org/namespaces/inkscape"
   xmlns:sodipodi="http://sodipodi.sourceforge.net/DTD/sodipodi-0.dtd"
   xmlns="http://www.w3.org/2000/svg"
   xmlns:svg="http://www.w3.org/2000/svg"><sodipodi:namedview
     id="namedview1"
     pagecolor="#ffffff"
     bordercolor="#000000"
     borderopacity="0.25"
     inkscape:showpageshadow="2"
     inkscape:pageopacity="0.0"
     inkscape:pagecheckerboard="0"
     inkscape:deskcolor="#d1d1d1"
     inkscape:document-units="px"
     showgrid="true"
     inkscape:zoom="0.54163861"
     inkscape:cx="204.93369"
     inkscape:cy="319.40116"
     inkscape:window-width="1440"
     inkscape:window-height="830"
     inkscape:window-x="-6"
     inkscape:window-y="-6"
     inkscape:window-maximized="1"
     inkscape:current-layer="layer1"><inkscape:grid
       id="grid4"
       units="px"
       originx="0"
       originy="0"
       spacingx="0.26458332"
       spacingy="0.26458332"
       empcolor="#0099e5"
       empopacity="0.30196078"
       color="#0099e5"
       opacity="0.14901961"
       empspacing="5"
       enabled="true"
       visible="true" /></sodipodi:namedview><defs
     id="defs1" /><g
     inkscape:label="Layer 1"
     inkscape:groupmode="layer"
     id="layer1"><path
       id="path1"
       style="display:inline;fill:#000000;fill-opacity:1;stroke:none;stroke-width:3.64515;stroke-linecap:round;stroke-linejoin:round;stroke-dasharray:none;stroke-opacity:1"
       inkscape:label="몸체"
       d="M 73.925605,7.6775611 C 64.628752,7.4465113 50.004043,10.662432 50.004043,10.662432 c 0,0 -14.339237,3.71403 -19.458201,10.456703 -4.334082,5.709088 0.153883,20.48425 0.153883,20.48425 l 3.28814,11.524675 -3.880467,4.174323 c 0,0 -5.312873,-0.307764 -14.145876,4.4681 -8.1319305,4.397161 -13.3189817,13.042653 -13.3156873,22.17263 0.00532,14.798178 6.7931157,18.018147 6.1564662,18.194147 -6.3181741,1.74957 -5.1412931,13.67452 -3.2834478,20.13442 1.6302351,5.66866 3.9164511,9.98631 8.9222089,14.07598 5.448517,4.45149 12.093509,7.15098 19.234255,9.27663 8.698741,2.58956 15.673727,4.44653 24.784478,4.99979 9.909766,0.60289 20.147691,0.7473 30.535172,-0.39622 12.022603,-1.32347 25.677183,-2.729 37.279203,-6.14718 6.31072,-1.85923 9.81563,-3.3605 18.2409,-7.53231 5.39582,-2.67168 6.29935,-3.19696 9.31861,-8.12932 3.77991,-6.17607 1.84983,-9.5067 1.18467,-15.13934 -1.02087,-8.65081 -2.6837,-17.651453 -4.8599,-25.017598 -5.01774,-16.983402 -5.27199,-17.646857 -8.42779,-23.487895 -4.42225,-8.18926 -5.75539,-8.129331 -5.75539,-8.129331 l 2.78911,-8.143321 c 0,0 2.62015,-4.298242 4.25357,-8.213267 1.4501,-3.477474 0.5037,-9.621766 0.5037,-9.621766 0,0 -1.96067,-7.717142 -8.91291,-10.484682 C 121.102,14.805528 117.24861,13.922034 105.64073,11.735367 94.033379,9.5489717 88.088727,8.0297313 73.925578,7.6777419 Z m 1.417885,4.3375019 c 2.406613,0.0021 4.787598,0.114623 7.112528,0.372748 12.399598,1.377813 22.596462,3.582531 33.342882,6.613521 10.74633,3.03108 20.93877,7.165241 22.86758,9.645142 1.9289,2.479901 3.03451,7.441598 0.83015,12.401489 -2.20436,4.959893 -6.24041,14.92011 -6.24041,14.92011 0,0 4.87126,-12.954655 5.26097,-16.072108 0.38991,-3.117452 0.29243,-7.794129 -1.75362,-9.645142 -2.04587,-1.851013 -3.3115,-2.532518 -3.3115,-2.532518 l 0.48512,3.894446 c 0,0 -14.55847,2.546869 -23.37599,2.271325 C 101.74369,33.608802 86.315995,33.05645 73.916309,31.402912 61.516624,29.749644 48.83968,28.924185 44.155333,26.995372 39.471076,25.06647 37.784775,24.987228 37.005435,23.623314 36.225642,22.2594 36.32456,40.865651 37.299301,44.275436 c 0.974198,3.409695 2.434593,7.60234 2.434593,7.60234 0,0 -1.462019,0.680513 -2.728459,-1.170681 -1.266531,-1.851013 -4.327855,-15.201881 -4.696604,-17.098202 0,-8.817606 2.751546,-16.536283 13.222419,-18.18955 8.507495,-1.343246 19.383245,-3.414297 29.81224,-3.40464 z M 47.91458,58.403027 c 0,0 15.783205,1.557238 22.797542,2.336668 v 0.0047 c 15.782214,1.363825 21.433086,1.555613 31.370028,1.165988 9.93692,-0.389896 11.69164,-1.361837 13.25032,-1.361837 1.55877,0 12.85555,-0.197657 14.02461,-0.587552 1.16906,-0.389896 0.97871,0.390798 -5.25629,1.949569 -6.2349,1.558682 -11.6938,1.561389 -17.14946,1.366532 -5.45556,-0.194948 -19.287666,1.363914 -30.978231,0 C 64.282539,61.913265 63.309514,61.717776 57.074608,60.548719 50.839612,59.379663 47.91458,58.403208 47.91458,58.403208 Z m -16.655147,4.290932 c 4.463046,0.0722 9.300193,1.475106 14.122538,5.256285 17.146126,13.444194 3.703199,29.229204 3.703199,29.229204 0,0 -4.091922,10.129622 -16.561797,10.909052 C 20.05348,108.86829 10.375811,98.02125 8.3639117,93.863346 5.4412801,87.823303 4.4666848,80.812572 10.896458,71.070495 c 0,0 8.957426,-8.55587 20.362975,-8.376536 z m 102.775677,3.502656 c 0,0 2.14614,0.877266 3.99707,3.507259 1.85101,2.630353 4.96522,10.716454 6.32904,13.931385 1.36391,3.214833 4.48326,15.245657 5.21431,17.242791 0.73034,1.99713 1.40697,8.96327 1.36184,11.39877 -0.0487,2.43558 0.0514,5.16467 0.14929,8.08736 0.0974,2.92259 -1.80454,4.8218 -1.70707,4.18822 0.0975,-0.63358 -0.0982,-3.16638 -0.6343,-4.38416 -0.53611,-1.2178 -0.0988,-5.01866 -0.29378,-4.58002 -0.19495,0.43773 -0.2398,0.3908 -0.62969,-0.34026 -0.3899,-0.73105 -0.53629,-2.43459 -0.53629,-2.43459 0,0 -0.34423,15.24773 -1.12402,15.97879 -0.77889,0.73105 -0.38854,-0.29153 -0.68097,-2.97097 -0.29188,-2.67882 -1.0214,-3.16682 -1.0214,-3.16682 0,0 -0.33999,3.75049 -0.24251,5.16304 0.0975,1.41256 -0.24676,3.21394 -1.46455,4.09031 -1.21779,0.87636 -5.35421,3.46068 -5.35421,3.46068 0,0 1.70129,-3.11899 3.26006,-8.96418 1.55904,-5.84528 0.97483,-14.41667 0.97483,-19.67738 0,-5.2607 0,-14.032639 -0.77889,-19.877917 -0.77943,-5.845192 -2.33739,-13.637791 -6.81876,-20.652127 z m -40.049716,2.980267 c 2.310227,0.01805 4.760524,0.353795 7.317856,1.114723 16.36679,4.871087 23.38203,19.677292 21.04391,29.224514 -2.3381,9.547301 -11.10878,18.314001 -16.17472,20.652121 -5.06585,2.33811 -21.431918,3.11781 -29.420449,-4.28615 -7.988537,-7.40405 -11.886323,-16.367421 -9.743069,-25.330148 2.143255,-8.96274 6.039868,-12.466839 6.039868,-12.466839 0,0 8.461374,-9.016615 20.936604,-8.908221 z m -60.020877,5.783371 c -5.188487,0.07221 -8.847552,4.094987 -8.847552,4.094987 -5.065868,4.871082 -3.116433,14.615507 0.195851,18.707253 3.312319,4.092097 13.250091,3.311857 17.536599,0.778882 4.2866,-2.53288 4.67424,-11.301117 3.115558,-16.561823 -1.558771,-5.260794 -6.036527,-6.81975 -11.492094,-7.014698 -0.170489,-0.0058 -0.340978,-0.0068 -0.508399,-0.0048 z m 65.207304,7.844765 c -2.256615,0.0087 -4.604291,0.50632 -6.832748,1.511199 -5.842756,2.633974 -7.756224,8.964181 -7.756224,8.964181 -0.389712,3.117451 -0.781598,8.325722 0.881513,11.809152 1.730517,3.62495 5.101496,8.13628 13.110427,8.25993 11.088491,0.17148 13.779131,-5.9979 15.162631,-10.6012 2.2326,-7.428776 -1.91501,-12.583623 -5.03246,-16.090786 -2.26672,-2.550115 -5.77218,-3.873414 -9.533139,-3.852476 z M 10.541994,103.34991 c 0.883494,-0.009 0.179606,4.63191 0.111915,6.05386 -0.14612,3.0688 -0.264533,2.40968 -0.391791,6.81876 -0.146121,5.06584 1.314554,10.19226 0.634303,10.08359 -1.2177566,-0.19495 -3.1696374,-5.3737 -3.3114348,-12.66278 -0.069494,-3.5846 1.2665934,-8.9658 2.6304978,-10.13485 0.127889,-0.10921 0.235111,-0.15704 0.326448,-0.15885 z" /></g></svg>
